<?xml version="1.0" encoding="utf-8"?>
<!-- Generator: Adobe Illustrator 23.0.5, SVG Export Plug-In . SVG Version: 6.00 Build 0)  -->
<svg version="1.1" id="Layer_1" xmlns="http://www.w3.org/2000/svg" xmlns:xlink="http://www.w3.org/1999/xlink" x="0px" y="0px"
	 viewBox="0 0 1080 1080" style="enable-background:new 0 0 1080 1080;" xml:space="preserve">
<style type="text/css">
	.st0{font-family:'Poppins-Bold';}
	.st1{font-size:49.2994px;}
</style>
<path d="M369.14,374.49c-0.1-18.35-3.51-34.32-10.24-47.95c-6.73-13.68-15.84-24.16-27.33-31.44
	c-11.53-7.33-24.36-10.94-38.46-10.83c-12,0.05-22.44,2.56-31.25,7.42c-4.87,2.72-9.12,5.95-12.77,9.67c0,0-0.04,0-0.09,0.04
	c-0.59,0.61-1.24,0.96-1.93,1.13c-0.43,0.11-0.9,0.17-1.33,0.14c-2.25-0.12-4.37-1.89-4.36-4.53c-0.05-6.3-5.15-11.34-11.45-11.29
	l-27.46,0.13c-12.73,0.1-23.02,10.49-22.93,23.22l0.64,107.63l0.33,57.6l0.1,28.07c0.05,12.73,10.41,22.98,23.14,22.88l14.69-0.08
	c13.37-0.06,24.16-10.99,24.05-24.36l-0.13-31.52l-0.12-20.39c0-3.32,4-4.85,6.26-2.44c4.07,4.43,8.94,8.13,14.48,11.19
	c8.77,4.8,19.16,7.18,31.16,7.09c14.13-0.06,26.89-3.82,38.3-11.26c11.46-7.44,20.44-18.08,27-31.9S369.24,392.8,369.14,374.49z
	 M297.09,401.9c-6.08,6.6-13.63,9.97-22.56,10.08c-6.45,0.08-12.89-1.8-18.21-5.43c-9.57-6.53-14.41-16.98-14.47-31.35
	c-0.12-13.97,4.51-24.28,13.85-31.02c5.22-3.73,11.58-5.73,17.97-5.78c9.16-0.11,16.86,3.06,23.12,9.47
	c6.26,6.42,9.4,15.39,9.48,26.97C306.35,386.21,303.28,395.24,297.09,401.9z"/>
<path d="M522.08,328.4l-2.4-27.12c-1.61-18.21-22.39-27.79-37.29-17.19l-4.87,3.46c-2.75,1.96-5.16,4.32-7.66,6.58
	c-2.69,2.44-6.07,3.63-9.05,3.47c-3.53-0.19-6.45-2.31-6.81-6.7c-0.5-5.4-5.25-9.37-10.6-8.87l-37.6,3.3
	c-12.32,1.1-21.39,11.96-20.29,24.24l8.69,98.42l1.77,19.66l2.15,24.55l0.15,1.52c0.2,2.31,0.63,4.53,1.26,6.63
	c4.42,14.61,18.64,24.63,34.42,23.26l27.08-2.39c5.35-0.5,11.65-12.71,11.15-18.11l-8.11-48.42c-0.04-0.05-0.04-0.05-0.04-0.05
	l-0.69-4.26l-3.01-17.84c-1.34-14.68,4.18-24.49,11-31.06c3.43-3.26,7.84-5.93,13.32-7.89c5.43-1.93,11.81-3.27,19.27-3.94
	C514.84,348.68,523.05,339.32,522.08,328.4z"/>
<path d="M415.14,658.66c-3.23-4.03-4.43-9.14-3.54-13.96c0.47-2.73,1.62-5.38,3.39-7.67l42.49-54.16c3.94-5.03,0.06-12.4-6.35-11.95
	l-28.44,1.99c-9.31,0.66-17.95,5.03-24.02,12.15l-26.82,31.38c-4.16,4.88-12.23,1.93-12.21-4.55l0-67.19
	c0.03-13.59-10.97-24.55-24.56-24.58l-5.19,0c-13.6,0.02-24.6,11.01-24.58,24.56l-0.04,156.01c0.02,13.55,11.02,24.55,24.56,24.58
	l5.24,0c13.55-0.02,24.55-11.02,24.53-24.57l0.04-27.88c-0.03-3.86,4.8-5.63,7.26-2.65c0,0,0,0,0.04,0.05l31.16,37.1
	c6.31,7.45,15.25,12.24,24.98,13.21l14.21,1.48c11.69,1.21,19.02-12.27,11.65-21.43L415.14,658.66z"/>
<path d="M528.61,677.4l-1.36-85.86c0.01-0.27-0.02-0.55-0.05-0.78c-0.56-10.27-9.04-18.39-19.42-18.38h-9.6
	c-10.56,0-19.18,8.41-19.46,18.95l-2.46,93.01l-0.6,23.58c-0.3,10.91,8.5,19.97,19.43,19.99l14.56-0.01
	c10.89-0.02,19.67-8.93,19.46-19.78L528.61,677.4z"/>
<path d="M525.43,550.06c-0.48,0.43-0.96,0.82-1.44,1.16c-5.61,4.48-12.75,6.72-21.43,6.73c-8.82,0-16.05-2.27-21.69-6.74
	c-0.53-0.35-0.97-0.74-1.45-1.18c-5.83-5.27-8.7-11.85-8.74-19.8c0.02-5.69,1.44-10.72,4.38-15.06c1.15-1.87,2.62-3.58,4.36-5.19
	c5.84-5.34,13.56-8.01,23.16-8.01c9.42-0.01,17.08,2.69,22.86,8.05c1.49,1.36,2.75,2.81,3.86,4.34c3.25,4.49,4.9,9.81,4.91,15.87
	C534.19,538.17,531.27,544.77,525.43,550.06z"/>
<path d="M724.77,651.81l0-0.05l0.01-110.13c-0.01-11.94-9.7-21.59-21.64-21.62l-11.34,0c-11.94,0.01-21.64,9.7-21.62,21.64
	l-0.02,49.32c-4.44-7.21-10.57-12.91-18.44-17.04c-7.82-4.18-16.76-6.26-26.72-6.23c-12.4-0.01-23.68,3.21-33.85,9.7
	c-10.17,6.45-18.14,15.72-23.96,27.72c-5.82,12-8.72,26.04-8.74,42.11c-0.02,16.07,2.91,30.19,8.75,42.3
	c5.79,12.11,13.75,21.39,23.84,27.85c10.04,6.45,21.26,9.71,33.66,9.72c10.52,0,19.68-2.13,27.43-6.36
	c7.76-4.28,13.8-10.02,18.04-17.19c0.01,11.94,9.66,21.59,21.64,21.62l11.34,0c11.94-0.01,21.64-9.7,21.62-21.64L724.77,651.81z
	 M657.65,674.96c-5,3.41-11.1,4.97-17.15,4.7c-7.42-0.39-13.61-3.29-18.6-8.69c-5.34-5.84-8-13.74-8.03-23.71
	c0.03-10.15,2.7-18.09,8.05-23.73c5.01-5.25,11.22-8.04,18.67-8.39c6.58-0.3,13.28,1.62,18.49,5.66
	c7.55,5.86,11.35,14.7,11.38,26.46C670.43,659.97,666.17,669.21,657.65,674.96z"/>
<path d="M876.67,694.34c0.02-10.06-8.14-18.2-18.19-18.23l-30.22,0.02c-6.7-0.03-10.18-8.07-5.56-12.97l46.82-49.2
	c3.21-3.32,4.96-7.78,4.97-12.37l-0.02-17.87c0.01-9.87-8.01-17.92-17.93-17.94l-87.44-0.01c-9.92-0.02-17.97,8.06-17.98,17.98
	l0.02,9.23c-0.02,9.92,8.06,17.97,17.93,17.98l27.28,0.01c6.43-0.03,9.99,7.46,5.96,12.48l-40.33,49.78
	c-3.24,4.01-4.62,9.17-3.83,14.27l2.13,13.71c1.34,8.52,8.49,14.96,17.15,15.37l46.32,2.21l33.86,1.6c10.4,0.5,19.1-7.77,19.1-18.19
	L876.67,694.34z"/>
<g>
	<g>
		<path d="M570.7,306.38c-13.43,25.2-38.52,42.47-43.58,72.2c-5.34,31.36,13.81,59.9,30.46,84.52
			c19.79,29.27,66.49,0.11,46.57-29.34c-9.95-14.72-28.89-35.31-19.56-53.75c8.7-17.19,25.28-30.09,34.53-47.45
			C635.81,301.24,587.37,275.09,570.7,306.38L570.7,306.38z"/>
	</g>
</g>
<g>
	<g>
		<path d="M619.03,332.78c-8.9,16.63-24.54,29.22-33.46,45.4c0,0,0,0.05-0.04,0.09c-0.35,0.56-0.65,1.17-0.95,1.78
			c-0.04,0.05-0.04,0.09-0.09,0.14c-0.13,0.37-0.3,0.7-0.47,1.07c0,0,0,0-0.04,0.05c-0.6,1.26-1.02,2.56-1.34,3.85l0,0.05
			c-1.59,5.11-5.33,7.17-8.74,9.9c-6.04,4.85-23.95,10.63-39.77-1.6c-7.19-5.56-7.75-9.2-6.55-17.71c0.67-4.77,1.54-6.16,3.24-10.34
			c3.01-7.44,7.24-14.15,11.94-20.54c9.26-12.7,20.35-24.26,27.82-38.33C587.24,275.29,635.7,301.44,619.03,332.78z"/>
	</g>
</g>
<g>
	<path d="M699.22,313.14c10.71,26.47,33.85,46.28,35.76,76.37c2.02,31.75-20.02,58.12-39.16,80.86
		c-22.76,27.03-66.13-6.87-43.23-34.07c11.44-13.59,32.43-32.08,25.09-51.4c-6.84-18.01-21.99-32.58-29.36-50.81
		C635.01,301.2,685.92,280.28,699.22,313.14L699.22,313.14z"/>
</g>
<g>
	<path d="M648.39,334.33c7.1,17.48,21.34,31.64,28.51,48.66c0,0-0.01,0.05,0.03,0.1c0.29,0.6,0.52,1.23,0.76,1.87
		c0.04,0.05,0.03,0.1,0.07,0.15c0.09,0.38,0.22,0.73,0.35,1.11c0,0,0,0,0.04,0.05c0.46,1.31,0.74,2.65,0.93,3.97l-0.01,0.05
		c1.05,5.25,4.55,7.69,7.65,10.76c5.49,5.46,22.07,11.98,39.72,2.58c7.47-3.97,8.67-8.33,8.38-16.92
		c-0.17-4.82-0.89-6.28-2.13-10.63c-2.21-7.72-5.71-14.83-9.71-21.68c-7.88-13.6-17.69-26.27-23.64-41.03
		C686.03,280.49,635.1,301.4,648.39,334.33z"/>
</g>
<text transform="matrix(1 0 0 1 502.4323 780.4938)" class="st0 st1">Code With Fun</text>
</svg>
