<?xml version="1.0" standalone="no"?>
<!DOCTYPE svg PUBLIC "-//W3C//DTD SVG 20010904//EN"
 "http://www.w3.org/TR/2001/REC-SVG-20010904/DTD/svg10.dtd">
<svg version="1.0" xmlns="http://www.w3.org/2000/svg"
 width="2889.000000pt" height="2334.000000pt" viewBox="0 0 2889.000000 2334.000000"
 preserveAspectRatio="xMidYMid meet">

<g transform="translate(0.000000,2334.000000) scale(0.100000,-0.100000)"
fill="#000000" stroke="none">
<path d="M19640 20621 c-235 -52 -431 -160 -587 -324 -87 -92 -124 -146 -174
-251 -55 -117 -81 -237 -82 -366 0 -184 40 -328 156 -565 103 -209 174 -326
458 -750 459 -686 579 -939 579 -1218 0 -224 -82 -452 -257 -717 -112 -169
-204 -282 -527 -645 -253 -284 -310 -367 -365 -530 -109 -327 -18 -665 250
-934 347 -347 858 -429 1238 -199 147 89 233 179 584 610 576 709 881 1240
1021 1780 74 281 96 510 77 788 -7 102 -17 208 -22 235 -19 102 -93 344 -146
480 -110 278 -234 504 -555 1008 -319 502 -441 718 -561 1000 -62 144 -124
247 -197 330 -104 115 -249 206 -405 253 -123 36 -355 44 -485 15z"/>
<path d="M14465 17515 c-6 -49 -9 -166 -9 -260 4 -567 207 -1158 647 -1890
125 -208 502 -777 566 -853 135 -161 327 -276 531 -318 114 -23 332 -15 445
16 187 50 353 143 492 274 182 172 275 348 304 575 14 113 0 231 -45 363 -45
132 -87 201 -317 523 -248 347 -332 478 -431 672 -128 253 -187 477 -174 668
l6 90 -29 -50 c-55 -94 -256 -262 -400 -334 -309 -155 -710 -166 -1031 -31
-165 70 -353 204 -443 315 -59 74 -87 147 -96 250 l-7 80 -9 -90z"/>
<path d="M7295 12540 c-137 -8 -215 -27 -332 -80 -231 -105 -411 -322 -485
-585 l-23 -80 -3 -2933 c-2 -2838 -2 -2936 17 -3025 74 -364 359 -642 725
-706 77 -14 392 -14 476 0 297 47 571 269 679 548 55 143 54 127 60 778 6 597
6 612 27 639 37 51 71 69 128 69 32 0 62 -6 78 -17 15 -10 295 -337 623 -727
328 -391 628 -740 667 -776 126 -116 300 -223 458 -279 133 -48 229 -65 568
-101 350 -37 389 -37 490 -1 208 75 343 318 298 535 -8 40 -30 99 -48 132 -18
32 -312 404 -653 826 -341 422 -638 795 -660 828 -61 91 -88 179 -93 311 -5
128 9 199 62 309 25 52 231 322 825 1079 436 555 799 1022 806 1037 77 148 -7
332 -173 374 -40 11 -132 6 -597 -26 -302 -21 -590 -45 -640 -53 -251 -42
-483 -163 -669 -351 -55 -55 -320 -359 -590 -675 -369 -431 -501 -579 -530
-594 -123 -62 -283 -10 -343 111 l-28 58 -5 1330 c-5 1246 -7 1334 -24 1390
-78 258 -239 452 -475 570 -152 76 -339 102 -616 85z"/>
<path d="M23094 10870 c-183 -48 -342 -176 -423 -340 -61 -125 -71 -186 -71
-455 0 -269 10 -330 71 -455 75 -152 226 -279 399 -336 50 -17 112 -19 650
-24 l595 -5 53 -29 c94 -52 144 -137 145 -246 0 -44 -6 -80 -20 -110 -11 -26
-335 -434 -751 -947 -402 -497 -747 -924 -767 -950 -80 -105 -125 -240 -125
-380 0 -123 85 -650 119 -739 72 -186 231 -333 426 -394 65 -20 171 -27 1590
-95 1149 -55 1537 -70 1589 -63 248 33 463 214 539 453 20 65 22 89 22 345 0
273 0 275 -27 348 -71 196 -221 343 -418 414 -65 23 -67 23 -715 28 -636 5
-651 5 -696 26 -59 27 -116 85 -143 143 -28 63 -28 169 0 231 15 32 220 254
735 795 1180 1241 1072 1123 1118 1217 70 143 71 152 71 618 0 453 -2 474 -59
595 -64 137 -171 245 -306 309 -145 70 -34 66 -1872 65 -1585 0 -1661 -1
-1729 -19z"/>
<path d="M21960 2162 c-110 -55 -106 -204 7 -254 108 -47 226 11 239 118 14
112 -132 193 -246 136z"/>
<path d="M17900 1885 l0 -226 -47 36 c-89 68 -233 92 -358 60 -225 -59 -365
-286 -327 -532 30 -191 152 -332 327 -378 129 -33 283 -8 362 60 23 19 44 35
47 35 3 0 6 -22 6 -50 l0 -50 125 0 125 0 0 635 0 635 -130 0 -130 0 0 -225z
m-128 -356 c109 -56 154 -187 112 -328 -50 -170 -287 -215 -402 -76 -38 47
-52 96 -52 181 0 111 52 198 140 233 47 18 157 13 202 -10z"/>
<path d="M23180 1475 l0 -635 130 0 130 0 0 264 c0 170 4 275 11 297 31 92
101 138 209 139 83 0 126 -22 160 -81 25 -44 25 -46 28 -331 l3 -288 130 0
129 0 0 295 c0 379 -12 439 -112 537 -69 68 -137 92 -263 92 -117 1 -181 -17
-251 -70 l-44 -34 0 225 0 225 -130 0 -130 0 0 -635z"/>
<path d="M15302 2030 c-110 -29 -206 -84 -288 -165 -125 -125 -182 -279 -171
-464 13 -227 134 -412 332 -506 119 -57 177 -70 315 -69 134 1 212 19 313 71
64 34 167 115 167 133 0 4 -38 42 -84 84 l-84 76 -39 -35 c-90 -84 -221 -120
-345 -95 -85 16 -145 49 -201 109 -58 62 -82 113 -97 204 -28 179 54 343 209
416 50 23 68 26 171 26 106 0 119 -2 168 -28 29 -15 71 -44 92 -63 l40 -36 57
50 c32 28 72 64 88 82 l30 32 -55 49 c-68 61 -176 115 -266 134 -98 21 -262
18 -352 -5z"/>
<path d="M20088 1435 l196 -596 144 3 144 3 137 402 c75 221 139 399 142 395
3 -4 64 -186 135 -405 l129 -397 145 2 144 3 193 585 c106 322 193 588 193
593 0 4 -57 7 -127 7 l-128 0 -138 -421 c-76 -232 -140 -419 -143 -417 -2 3
-64 191 -137 419 l-134 414 -128 0 -128 0 -33 -100 c-122 -366 -247 -725 -252
-720 -3 3 -64 188 -137 413 l-131 407 -141 3 -141 3 196 -596z"/>
<path d="M24850 1435 l0 -595 140 0 140 0 0 220 0 220 275 0 275 0 0 110 0
110 -275 0 -275 0 0 160 0 160 310 0 310 0 0 105 0 105 -450 0 -450 0 0 -595z"/>
<path d="M22470 1850 l0 -110 -70 0 -70 0 0 -100 0 -100 70 0 70 0 0 -228 c0
-271 7 -309 76 -382 67 -71 126 -94 249 -95 99 0 173 14 207 39 17 12 16 19
-15 100 -28 77 -34 86 -52 80 -41 -14 -128 -16 -151 -4 -47 26 -54 61 -54 284
l0 206 115 0 115 0 0 100 0 100 -115 0 -115 0 0 110 0 110 -130 0 -130 0 0
-110z"/>
<path d="M16425 1760 c-281 -62 -440 -314 -370 -585 76 -292 435 -432 735
-288 64 31 168 130 199 190 66 131 67 314 2 441 -48 94 -156 184 -267 223 -66
23 -232 34 -299 19z m220 -229 c49 -22 98 -76 116 -128 17 -49 17 -157 0 -207
-21 -61 -85 -123 -144 -141 -63 -19 -91 -19 -153 0 -56 16 -105 59 -137 119
-30 58 -30 194 0 251 26 50 67 89 113 109 49 21 155 20 205 -3z"/>
<path d="M18721 1759 c-25 -5 -77 -24 -116 -42 -159 -76 -255 -233 -255 -417
0 -184 96 -335 263 -416 195 -94 486 -60 606 69 l24 26 -69 71 -69 70 -44 -30
c-60 -41 -112 -53 -206 -48 -88 5 -142 26 -186 75 -28 29 -59 84 -59 103 0 7
112 10 350 10 l350 0 0 65 c0 139 -43 249 -130 336 -31 31 -79 68 -108 83 -99
50 -236 68 -351 45z m230 -212 c49 -26 96 -85 105 -134 l7 -33 -227 0 c-258 0
-248 -4 -196 86 23 41 41 58 82 78 70 35 165 36 229 3z"/>
<path d="M27510 1755 c-61 -18 -126 -52 -154 -84 -29 -32 -36 -26 -36 34 l0
55 -120 0 -120 0 0 -460 0 -460 130 0 130 0 0 264 c0 170 4 275 11 297 31 92
101 138 209 139 83 0 126 -22 160 -81 25 -44 25 -46 28 -331 l3 -288 130 0
129 0 0 295 c0 305 -6 364 -43 445 -31 65 -106 134 -174 160 -76 29 -207 36
-283 15z"/>
<path d="M21920 1300 l0 -460 130 0 130 0 0 460 0 460 -130 0 -130 0 0 -460z"/>
<path d="M25902 1438 c3 -304 5 -326 25 -377 30 -74 66 -123 116 -158 73 -52
130 -68 242 -68 117 1 185 23 253 81 l42 36 0 -56 0 -56 125 0 125 0 0 460 0
460 -129 0 -130 0 -3 -267 c-3 -247 -5 -272 -24 -313 -43 -93 -141 -142 -240
-120 -61 14 -91 35 -117 84 -21 39 -22 55 -25 329 l-3 287 -130 0 -130 0 3
-322z"/>
</g>
</svg>
