<?xml version="1.0" encoding="utf-8"?>
<!-- Generator: Adobe Illustrator 23.0.5, SVG Export Plug-In . SVG Version: 6.00 Build 0)  -->
<svg version="1.1" id="Layer_1" xmlns="http://www.w3.org/2000/svg" xmlns:xlink="http://www.w3.org/1999/xlink" x="0px" y="0px"
	 viewBox="0 0 1080 1080" style="enable-background:new 0 0 1080 1080;" xml:space="preserve">
<style type="text/css">
	.st0{fill:#FFFFFF;}
	.st1{fill:#E76A69;}
	.st2{fill:#F4CA13;}
	.st3{fill:#EA612D;}
	.st4{fill:#F6C482;}
	.st5{fill:#4785C5;}
	.st6{fill:#7DB3D8;}
	.st7{fill:#BB3626;}
	.st8{font-family:'Poppins-Bold';}
	.st9{font-size:44.0106px;}
</style>
<g>
	<path class="st0" d="M886.38,640.49c-3.62-9.68-4.31-20.32-1.03-30.12c2.43-7.25,3.7-14.91,3.71-22.75l-0.01-15.14
		c0.06-39.09-31.23-71.03-70.18-72.01c-0.59-0.01-1.16-0.01-1.73-0.02l-56.96-0.01c-4.14,0-8.01-2.05-10.33-5.47
		c-2.85-4.19-2.98-9.69-0.25-13.95c13.01-20.29,23.59-45.47,21.64-76.13c-0.02-0.22-0.03-0.44-0.05-0.66l0-0.07
		c-0.34-9.86-2.08-16.33-3.65-21.61l-0.32-1.06c-0.14-0.51-0.3-1.01-0.46-1.52c-0.2-0.64-0.38-1.3-0.58-1.94
		c-0.2-0.6-0.41-1.19-0.61-1.79c-5.43-16.17-13.65-29.01-20.25-39.33c-3.07-4.77-5.97-9.3-7.61-12.69
		c-0.21-0.44-0.39-0.88-0.56-1.28c-1.05-2.58-2.21-5.06-3.46-7.47c-17.58-33.67-55.89-49.72-92.67-38.79
		c-4.81,1.43-9.99,1.19-14.63-0.73c-10.67-4.43-22.31-6.64-34.18-6.26c-7.05,0.24-13.9,1.41-20.41,3.43
		c-6.07,1.88-12.72,0.97-18.1-2.41c-2.73-1.71-5.58-3.26-8.55-4.63c-16.82-7.75-35.65-9.02-52.98-4.15c-3.2,0.9-6.55,0.99-9.81,0.33
		c-6.11-1.24-12.44-1.61-18.82-1.05l-31.77,2.81c-9.56,0.84-18.68,3.44-27.02,7.59c-5.35,2.66-11.63,2.67-17.13,0.33
		c-14.42-6.12-29.88-9.17-46.18-9.06c-8.92,0.04-17.5,0.98-25.7,2.82c-4.82,1.08-9.8,1.46-14.65,0.53
		c-4.23-0.81-8.57-1.21-12.95-1.17l-23.34,0.11c-42.07,0.32-76.01,34.77-75.69,76.73l0.52,90.79l0.37,72.22
		c0.08,20.41,8.12,39.53,22.64,53.88c13.9,13.72,32.12,21.48,51.45,21.96c0.85,0.02,1.68,0.02,2.53,0.02l12.35-0.06l0.17,0
		c8.85-0.07,16.09,7.12,16.09,15.97l-0.02,74.48c0.06,42.02,33.8,76.38,75.68,77.41c0.59,0.01,1.22,0.03,1.83,0.02l4.5,0
		c5.99-0.01,11.86-0.7,17.55-2.02c0,0,0,0.01,0,0.01s42.94,0.99,67.86-0.7c0.06,0,0.12-0.01,0.18-0.02c3.76,0.1,7.49-0.1,11.15-0.62
		c4.6-0.65,9.31-0.3,13.68,1.26c7.3,2.61,15.03,4.1,22.9,4.29c0.55,0.01,1.11,0.01,1.66,0.02l12.35-0.02
		c10.87-0.03,21.57-2.53,31.28-7.14c8.3-3.94,17.83-3.98,26.41-0.68c12.35,4.75,25.49,7.15,39.27,7.16c8.47,0,16.63-0.87,24.42-2.6
		c6.23-1.39,12.65-1.37,18.93-0.24c4.31,0.78,8.75,1.19,13.3,1.2l9.64,0c3.28-0.01,6.52-0.21,9.72-0.63l11.69-2.15l7.4-2.96
		c0.11-0.05,0.22-0.09,0.33-0.14c6.89-2.91,14.42-3.71,21.79-2.42c2.93,0.52,5.92,0.85,8.96,1l67.61,3.21
		c0.55,0.04,1.09,0.05,1.64,0.06c19.08,0.48,37.81-6.72,51.65-19.9c14.21-13.56,22.36-32.6,22.35-52.25l0.01-6.53
		C890.94,656.92,889.33,648.38,886.38,640.49z"/>
	<path class="st1" d="M398.08,389.44c-0.09-16.38-3.14-30.64-9.15-42.81c-6.01-12.21-14.14-21.56-24.4-28.07
		c-10.29-6.54-21.75-9.77-34.33-9.67c-10.72,0.04-20.03,2.29-27.89,6.62c-4.35,2.43-8.14,5.31-11.4,8.63c0,0-0.04,0-0.08,0.03
		c-0.52,0.54-1.11,0.85-1.72,1.01c-0.38,0.09-0.81,0.15-1.18,0.13c-2.01-0.11-3.9-1.69-3.89-4.04c-0.05-5.63-4.6-10.12-10.22-10.07
		l-24.51,0.12c-11.37,0.09-20.55,9.37-20.47,20.73l0.57,96.08l0.3,51.42l0.09,25.06c0.05,11.36,9.29,20.51,20.66,20.43l13.11-0.07
		c11.93-0.06,21.57-9.81,21.47-21.74l-0.12-28.14l-0.11-18.2c0-2.96,3.57-4.33,5.59-2.18c3.63,3.95,7.98,7.26,12.92,9.99
		c7.83,4.29,17.1,6.41,27.82,6.33c12.62-0.06,24-3.41,34.19-10.05c10.23-6.64,18.25-16.14,24.11-28.48
		C395.28,420.15,398.17,405.78,398.08,389.44z M333.76,413.91c-5.43,5.9-12.17,8.9-20.14,9c-5.75,0.07-11.51-1.61-16.26-4.85
		c-8.55-5.83-12.86-15.16-12.92-27.98c-0.1-12.47,4.03-21.67,12.36-27.69c4.66-3.33,10.34-5.12,16.04-5.16
		c8.17-0.1,15.05,2.73,20.64,8.46s8.4,13.74,8.46,24.08C342.02,399.9,339.28,407.97,333.76,413.91z"/>
	<path class="st2" d="M534.61,348.29l-2.14-24.21c-1.44-16.26-19.99-24.81-33.29-15.35l-4.35,3.09c-2.45,1.75-4.61,3.85-6.83,5.88
		c-2.4,2.18-5.42,3.24-8.07,3.1c-3.15-0.17-5.75-2.07-6.08-5.98c-0.44-4.82-4.68-8.36-9.46-7.92l-33.57,2.95
		c-11,0.98-19.09,10.68-18.11,21.64l7.76,87.86l1.58,17.55l1.92,21.91l0.13,1.36c0.18,2.06,0.57,4.05,1.12,5.92
		c3.95,13.04,16.64,21.99,30.72,20.76l24.18-2.13c4.78-0.45,10.4-11.34,9.95-16.16l-7.24-43.23c-0.04-0.04-0.04-0.04-0.04-0.04
		l-0.62-3.8l-2.69-15.93c-1.2-13.1,3.73-21.86,9.82-27.73c3.06-2.91,7-5.29,11.89-7.04c4.85-1.72,10.55-2.92,17.2-3.52
		C528.15,366.4,535.47,358.04,534.61,348.29z"/>
	<path class="st3" d="M439.14,643.13c-2.89-3.6-3.96-8.16-3.16-12.47c0.42-2.44,1.44-4.8,3.03-6.85l37.93-48.35
		c3.52-4.49,0.05-11.07-5.67-10.67l-25.39,1.78c-8.31,0.59-16.02,4.49-21.44,10.84l-23.94,28.01c-3.71,4.36-10.91,1.72-10.9-4.06
		l0-59.98c0.02-12.13-9.79-21.92-21.93-21.94l-4.63,0c-12.14,0.02-21.96,9.83-21.94,21.93l-0.03,139.28
		c0.02,12.1,9.83,21.92,21.93,21.94l4.67,0c12.1-0.02,21.92-9.83,21.9-21.93l0.04-24.89c-0.02-3.45,4.28-5.02,6.48-2.37
		c0,0,0,0,0.04,0.04l27.82,33.12c5.64,6.65,13.61,10.93,22.3,11.79l12.68,1.32c10.44,1.08,16.98-10.96,10.4-19.13L439.14,643.13z"/>
	<path class="st4" d="M540.43,659.86l-1.21-76.65c0.01-0.25-0.02-0.49-0.05-0.7c-0.5-9.17-8.07-16.41-17.34-16.41h-8.57
		c-9.43,0-17.12,7.5-17.37,16.92l-2.2,83.03l-0.53,21.05c-0.27,9.74,7.59,17.82,17.35,17.85l13-0.01
		c9.72-0.02,17.56-7.97,17.37-17.66L540.43,659.86z"/>
	<path class="st4" d="M537.6,546.18c-0.43,0.39-0.86,0.73-1.28,1.04c-5.01,4-11.39,6-19.14,6c-7.87,0-14.33-2.02-19.36-6.02
		c-0.48-0.31-0.87-0.66-1.3-1.05c-5.21-4.7-7.77-10.58-7.8-17.67c0.02-5.08,1.28-9.57,3.91-13.45c1.03-1.67,2.34-3.2,3.89-4.63
		c5.21-4.77,12.1-7.15,20.67-7.15c8.41-0.01,15.25,2.4,20.41,7.18c1.33,1.22,2.45,2.51,3.45,3.87c2.91,4.01,4.38,8.76,4.38,14.17
		C545.41,535.56,542.81,541.45,537.6,546.18z"/>
	<path class="st2" d="M715.56,637.01l0-0.04l0.01-98.32c-0.01-10.66-8.66-19.27-19.32-19.3l-10.13,0
		c-10.66,0.01-19.32,8.66-19.3,19.32l-0.02,44.03c-3.97-6.44-9.44-11.53-16.46-15.22c-6.98-3.73-14.96-5.58-23.86-5.56
		c-11.07-0.01-21.14,2.86-30.22,8.66c-9.08,5.75-16.2,14.03-21.39,24.75c-5.2,10.71-7.78,23.25-7.8,37.6
		c-0.02,14.35,2.6,26.95,7.81,37.76c5.17,10.81,12.28,19.1,21.28,24.86c8.96,5.76,18.98,8.67,30.05,8.67
		c9.39,0,17.57-1.9,24.49-5.68c6.92-3.82,12.32-8.95,16.1-15.35c0.01,10.66,8.62,19.27,19.32,19.3l10.13,0
		c10.66-0.01,19.32-8.66,19.3-19.32L715.56,637.01z M655.63,657.68c-4.47,3.04-9.91,4.44-15.31,4.2
		c-6.62-0.35-12.15-2.94-16.61-7.76c-4.77-5.21-7.14-12.27-7.17-21.16c0.03-9.06,2.41-16.15,7.18-21.19
		c4.47-4.68,10.01-7.18,16.67-7.49c5.88-0.26,11.85,1.44,16.5,5.05c6.74,5.23,10.13,13.12,10.16,23.62
		C667.04,644.3,663.24,652.54,655.63,657.68z"/>
	<path class="st3" d="M851.15,674.98c0.02-8.98-7.26-16.25-16.24-16.27l-26.98,0.02c-5.98-0.03-9.09-7.2-4.97-11.58l41.79-43.93
		c2.86-2.97,4.42-6.94,4.44-11.04l-0.02-15.95c0.01-8.81-7.15-16-16.01-16.01l-78.06-0.01c-8.86-0.02-16.04,7.19-16.06,16.05
		l0.02,8.24c-0.02,8.86,7.19,16.04,16.01,16.05l24.35,0.01c5.74-0.03,8.92,6.66,5.32,11.14l-36,44.44
		c-2.89,3.58-4.12,8.19-3.42,12.74l1.9,12.24c1.2,7.61,7.58,13.36,15.31,13.72l41.35,1.97l30.22,1.43
		c9.28,0.45,17.05-6.93,17.05-16.24L851.15,674.98z"/>
	<g>
		<g>
			<path class="st5" d="M578.01,328.64c-11.99,22.5-34.39,37.92-38.91,64.45c-4.77,28,12.33,53.47,27.19,75.46
				c17.67,26.13,59.36,0.1,41.57-26.2c-8.89-13.14-25.79-31.52-17.46-47.98c7.76-15.35,22.57-26.87,30.83-42.36
				C636.14,324.05,592.9,300.71,578.01,328.64L578.01,328.64z"/>
		</g>
	</g>
	<g>
		<g>
			<path class="st6" d="M621.16,352.21c-7.94,14.85-21.91,26.09-29.87,40.53c0,0,0,0.04-0.04,0.08c-0.31,0.5-0.58,1.04-0.85,1.58
				c-0.04,0.04-0.04,0.08-0.08,0.13c-0.11,0.33-0.27,0.62-0.42,0.96c0,0,0,0-0.04,0.04c-0.54,1.12-0.91,2.28-1.2,3.44l0,0.04
				c-1.42,4.56-4.76,6.4-7.8,8.84c-5.39,4.33-21.38,9.49-35.51-1.43c-6.42-4.96-6.92-8.21-5.85-15.81c0.6-4.26,1.38-5.5,2.89-9.23
				c2.69-6.64,6.46-12.63,10.65-18.34c8.27-11.34,18.16-21.66,24.83-34.21C592.78,300.88,636.04,324.22,621.16,352.21z"/>
		</g>
	</g>
	<g>
		<path class="st7" d="M692.74,334.67c9.56,23.63,30.22,41.32,31.93,68.18c1.8,28.34-17.87,51.88-34.96,72.19
			c-20.31,24.13-59.04-6.13-38.6-30.42c10.22-12.13,28.95-28.64,22.4-45.89c-6.11-16.08-19.63-29.09-26.21-45.36
			C635.42,324.01,680.87,305.34,692.74,334.67L692.74,334.67z"/>
	</g>
	<g>
		<path class="st3" d="M647.36,353.59c6.34,15.6,19.05,28.24,25.45,43.44c0,0-0.01,0.04,0.03,0.09c0.26,0.53,0.47,1.1,0.68,1.67
			c0.03,0.05,0.03,0.09,0.06,0.13c0.08,0.34,0.2,0.65,0.32,0.99c0,0,0,0,0.03,0.05c0.41,1.17,0.66,2.37,0.83,3.55l-0.01,0.04
			c0.94,4.69,4.06,6.86,6.83,9.61c4.91,4.87,19.7,10.69,35.46,2.31c6.67-3.55,7.74-7.44,7.48-15.11c-0.15-4.3-0.79-5.61-1.91-9.49
			c-1.98-6.89-5.1-13.24-8.67-19.36c-7.03-12.14-15.79-23.45-21.1-36.63C680.97,305.52,635.5,324.2,647.36,353.59z"/>
	</g>
	<path class="st0" d="M882.46,774.81c-5.22-4.88-12.52-7.57-20.55-7.57c-1.71,0-3.39,0.12-5.02,0.36c-0.79-0.09-1.6-0.13-2.42-0.13
		h-7.53c-0.46,0-0.92,0.02-1.37,0.05c-0.89,0.07-1.79,0.07-2.68,0c-0.45-0.03-0.91-0.05-1.37-0.05h-7.53
		c-1.63,0-3.22,0.18-4.73,0.52c-0.58-0.13-1.17-0.21-1.77-0.3c-3.41-3.48-8.5-5.69-14.19-5.69h-20.11c-5.27,0-10.02,1.9-13.4,4.94
		c-1.37-0.06-1.97-0.08-3.35-0.14c-3.4-3.8-8.73-6.25-14.72-6.25h-7.53c-3.07,0-5.95,0.65-8.5,1.79c-0.22-0.01-0.43-0.04-0.65-0.04
		l-3.73,0c-0.03,0-0.06-0.01-0.08-0.02c-4-2.61-8.92-4.03-14.1-4.03c-5.01,0-9.77,1.33-13.68,3.75h-1.99c-1.67,0-3.3,0.19-4.86,0.56
		c-0.02,0-0.04,0-0.06,0c-1.55-0.36-3.18-0.56-4.86-0.56h-8.27c-1.7,0-3.36,0.2-4.94,0.58c-0.02,0-0.04,0-0.06,0
		c-1.58-0.38-3.24-0.58-4.95-0.58h-8.05c-3.64,0-7.14,0.93-10.12,2.59c0,0,0-0.01,0-0.01s-4.34,2.95-9.71,2.79c-0.04,0-0.06,0-0.1,0
		c-0.66-0.07-1.33-0.13-2.01-0.17c0,0,0-0.01,0-0.01c0,0-3.71-0.79-6.81-3.19c-0.2-0.16-0.38-0.26-0.55-0.33
		c-3.07-1.95-6.85-3.13-10.97-3.13h-7.53c-6.03,0-11.38,2.47-14.78,6.31c-0.75,0.85-1.77,1.48-2.93,1.85
		c-1.59,0.52-3.36,0.58-4.96,0.09c-3.46-1.08-7.14-1.65-11.01-1.65c-3.07,0-6.01,0.37-8.83,1.05c-0.41-0.29-0.8-0.58-1.23-0.86
		c-5.79-3.7-12.87-5.65-20.48-5.65c-6.22,0-12,1.28-17.17,3.8c-5.39,2.62-9.64,6.33-12.64,11.01c-2.85,4.45-4.29,9.42-4.29,14.77
		c0,5.37,1.45,10.34,4.32,14.79c3.01,4.66,7.25,8.35,12.62,10.95c5.17,2.52,10.95,3.8,17.17,3.8c3.14,0,6.19-0.34,9.1-0.99
		c4.08-0.92,8.41-0.9,12.47,0.07c2.83,0.68,5.8,1.03,8.88,1.03c3.06,0,6-0.36,8.81-1.04c3.06-0.74,6.29-0.7,9.35,0.06
		c2.58,0.64,5.28,0.98,8.02,0.98c1.84,0,3.64-0.14,5.38-0.41c0.72,0.07,1.45,0.11,2.19,0.11h7.53c1.15,0,2.27-0.09,3.35-0.27
		c2.13-0.34,4.3-0.4,6.43-0.02c2.12,0.38,4.32,0.59,6.59,0.59c4.66,0,9.06-0.8,13.08-2.38l0.06-0.02c3.13-1.23,6.78-1.22,9.8,0.18
		c2.63,1.22,5.63,1.91,8.79,1.91h9.11c1.72,0,3.39-0.2,4.99-0.59c0.02,0,0.04,0,0.06,0c1.59,0.38,3.27,0.59,4.99,0.59h9.11
		c2.05,0,4.03-0.29,5.89-0.83c0.02-0.01,0.05-0.01,0.07,0c1.85,0.53,3.82,0.83,5.87,0.83h7.53c2.31,0,4.51-0.38,6.55-1.04
		c0.02-0.01,0.05-0.01,0.07,0c2.51,0.64,5.39,1.05,8.69,1.05h3.83c0.71,0,1.4-0.04,2.09-0.11c0.69,0.07,1.38,0.11,2.09,0.11h7.53
		c1.62,0,3.19-0.18,4.68-0.51c0.02,0,0.04,0,0.05,0c1.5,0.33,3.06,0.51,4.68,0.51h7.48c1.03,0,2.05-0.07,3.04-0.21
		c2.8-0.4,5.69-0.4,8.49,0c0.99,0.14,2,0.21,3.04,0.21h7.53c4.2,0,8.06-1.21,11.17-3.23c0.12,0.06,0.23,0.15,0.35,0.21
		c4.3,2.16,9.12,3.25,14.32,3.25c1.7,0,3.36-0.12,4.98-0.37c0.8,0.09,1.62,0.14,2.45,0.14h7.53c0.46,0,0.92-0.02,1.37-0.05
		c0.89,0,1.79,0,2.68,0c0.45,0.03,0.91,0.05,1.37,0.05h7.53c0.49,0,1.29-0.04,1.78-0.07c2.01-0.14,4.02-0.14,6.02,0.01
		c0.53,0.04,1.07,0.06,1.61,0.06c14.39,0,26.06-10.05,26.06-22.45v-5.91C889.95,783.63,885.88,778.01,882.46,774.81z"/>
	<text transform="matrix(1 0 0 1 546.0388 808.0533)" class="st3 st8 st9">Code With Fun</text>
</g>
</svg>
