<?xml version="1.0" encoding="utf-8"?>
<!-- Generator: Adobe Illustrator 23.0.5, SVG Export Plug-In . SVG Version: 6.00 Build 0)  -->
<svg version="1.1" id="Layer_1" xmlns="http://www.w3.org/2000/svg" xmlns:xlink="http://www.w3.org/1999/xlink" x="0px" y="0px"
	 viewBox="0 0 1080 1080" style="enable-background:new 0 0 1080 1080;" xml:space="preserve">
<style type="text/css">
	.st0{fill:#FFFFFF;}
	.st1{font-family:'Poppins-Bold';}
	.st2{font-size:46.8741px;}
</style>
<path class="st0" d="M379.37,386.28c-0.09-17.45-3.34-32.63-9.74-45.59c-6.4-13-15.06-22.97-25.98-29.9
	c-10.96-6.97-23.17-10.41-36.57-10.3c-11.41,0.05-21.33,2.44-29.71,7.06c-4.63,2.59-8.67,5.65-12.14,9.19c0,0-0.04,0-0.08,0.04
	c-0.56,0.58-1.18,0.91-1.84,1.08c-0.41,0.1-0.86,0.16-1.26,0.14c-2.14-0.11-4.15-1.8-4.14-4.31c-0.05-5.99-4.9-10.78-10.89-10.73
	l-26.11,0.12c-12.1,0.09-21.89,9.98-21.8,22.08l0.6,102.33l0.31,54.77l0.1,26.69c0.05,12.1,9.9,21.85,22,21.76l13.96-0.07
	c12.71-0.06,22.97-10.45,22.87-23.16l-0.13-29.97l-0.11-19.39c0-3.16,3.8-4.62,5.95-2.32c3.87,4.21,8.5,7.73,13.77,10.64
	c8.34,4.57,18.21,6.83,29.63,6.74c13.44-0.06,25.56-3.63,36.42-10.71c10.89-7.07,19.44-17.19,25.67-30.33
	C376.4,418.99,379.47,403.69,379.37,386.28z M310.87,412.34c-5.78,6.28-12.96,9.48-21.45,9.58c-6.13,0.08-12.25-1.71-17.32-5.16
	c-9.1-6.21-13.7-16.14-13.76-29.8c-0.11-13.28,4.29-23.08,13.17-29.49c4.96-3.54,11.01-5.45,17.08-5.49
	c8.71-0.11,16.03,2.91,21.98,9.01c5.95,6.1,8.94,14.63,9.01,25.64C319.66,397.43,316.74,406.01,310.87,412.34z"/>
<path class="st0" d="M524.79,342.46l-2.28-25.78c-1.53-17.32-21.29-26.43-35.45-16.35l-4.63,3.29c-2.61,1.86-4.9,4.1-7.28,6.26
	c-2.55,2.32-5.77,3.45-8.6,3.3c-3.35-0.18-6.13-2.2-6.48-6.37c-0.47-5.13-4.99-8.91-10.08-8.43l-35.75,3.14
	c-11.71,1.04-20.34,11.37-19.29,23.05l8.26,93.58l1.68,18.69l2.05,23.34l0.14,1.45c0.19,2.19,0.6,4.31,1.2,6.31
	c4.2,13.89,17.72,23.42,32.72,22.11l25.75-2.27c5.09-0.47,11.07-12.08,10.6-17.21l-7.71-46.04c-0.04-0.05-0.04-0.05-0.04-0.05
	l-0.66-4.05l-2.86-16.96c-1.27-13.95,3.98-23.28,10.46-29.54c3.26-3.1,7.46-5.63,12.67-7.5c5.17-1.83,11.23-3.11,18.32-3.75
	C517.9,361.75,525.7,352.84,524.79,342.46z"/>
<path class="st0" d="M423.11,656.48c-3.07-3.83-4.21-8.69-3.36-13.28c0.44-2.6,1.54-5.12,3.22-7.3l40.4-51.5
	c3.74-4.78,0.05-11.79-6.04-11.37l-27.04,1.9c-8.85,0.63-17.06,4.78-22.83,11.55l-25.5,29.84c-3.96,4.64-11.62,1.83-11.61-4.32
	l0-63.89c0.03-12.92-10.43-23.34-23.36-23.37l-4.93,0c-12.93,0.02-23.39,10.47-23.37,23.36l-0.03,148.34
	c0.02,12.88,10.47,23.35,23.36,23.37l4.98,0c12.88-0.02,23.35-10.47,23.32-23.36l0.04-26.5c-0.03-3.67,4.56-5.35,6.9-2.52
	c0,0,0,0,0.04,0.05l29.63,35.27c6,7.08,14.5,11.64,23.75,12.56l13.51,1.41c11.12,1.15,18.08-11.67,11.07-20.38L423.11,656.48z"/>
<path class="st0" d="M530.99,674.29l-1.29-81.64c0.01-0.26-0.02-0.52-0.05-0.75c-0.53-9.77-8.6-17.48-18.47-17.48h-9.13
	c-10.04,0-18.24,7.99-18.5,18.02l-2.34,88.43l-0.57,22.42c-0.28,10.38,8.08,18.98,18.48,19.01l13.84-0.01
	c10.35-0.02,18.7-8.49,18.5-18.81L530.99,674.29z"/>
<path class="st0" d="M527.97,553.22c-0.46,0.41-0.91,0.78-1.37,1.11c-5.33,4.26-12.13,6.39-20.38,6.39
	c-8.38,0-15.26-2.16-20.62-6.41c-0.51-0.33-0.92-0.7-1.38-1.12c-5.54-5.01-8.27-11.26-8.31-18.82c0.02-5.41,1.37-10.19,4.16-14.32
	c1.1-1.78,2.49-3.41,4.15-4.93c5.55-5.08,12.89-7.62,22.02-7.62c8.95-0.01,16.24,2.56,21.74,7.65c1.42,1.3,2.61,2.67,3.67,4.12
	c3.09,4.27,4.66,9.33,4.66,15.09C536.3,541.91,533.52,548.18,527.97,553.22z"/>
<path class="st0" d="M717.51,649.96l0-0.04l0.01-104.71c-0.01-11.35-9.23-20.53-20.58-20.56l-10.79,0
	c-11.35,0.01-20.57,9.22-20.56,20.58l-0.02,46.9c-4.22-6.86-10.05-12.28-17.53-16.21c-7.43-3.97-15.93-5.95-25.41-5.92
	c-11.79-0.01-22.52,3.05-32.19,9.22c-9.67,6.13-17.25,14.94-22.78,26.36c-5.54,11.41-8.29,24.76-8.31,40.04
	c-0.02,15.28,2.77,28.7,8.32,40.22c5.51,11.51,13.08,20.34,22.67,26.48c9.55,6.14,20.21,9.23,32,9.24c10,0,18.71-2.03,26.08-6.05
	c7.38-4.07,13.12-9.53,17.15-16.35c0.01,11.35,9.18,20.53,20.58,20.56l10.79,0c11.35-0.01,20.57-9.22,20.56-20.58L717.51,649.96z
	 M653.69,671.97c-4.76,3.24-10.55,4.73-16.31,4.47c-7.05-0.37-12.94-3.13-17.69-8.27c-5.08-5.55-7.61-13.06-7.63-22.54
	c0.03-9.65,2.56-17.2,7.65-22.57c4.76-4.99,10.66-7.65,17.76-7.97c6.26-0.28,12.63,1.54,17.58,5.38
	c7.17,5.57,10.79,13.97,10.82,25.15C665.83,657.72,661.79,666.51,653.69,671.97z"/>
<path class="st0" d="M861.93,690.4c0.02-9.56-7.74-17.31-17.3-17.33l-28.73,0.02c-6.37-0.03-9.68-7.67-5.29-12.33l44.51-46.78
	c3.05-3.16,4.71-7.39,4.72-11.76l-0.02-16.99c0.01-9.39-7.62-17.04-17.05-17.05l-83.14-0.01c-9.43-0.02-17.08,7.66-17.1,17.09
	l0.02,8.78c-0.02,9.43,7.66,17.08,17.05,17.1l25.94,0.01c6.12-0.03,9.5,7.09,5.66,11.87l-38.34,47.33
	c-3.08,3.81-4.39,8.72-3.64,13.56l2.02,13.03c1.28,8.1,8.07,14.22,16.31,14.61l44.04,2.1l32.19,1.52
	c9.89,0.48,18.16-7.38,18.16-17.3L861.93,690.4z"/>
<g>
	<g>
		<path class="st0" d="M571.02,321.52c-12.77,23.96-36.63,40.38-41.44,68.65c-5.08,29.82,13.13,56.95,28.96,80.37
			c18.82,27.83,63.22,0.1,44.28-27.9c-9.46-13.99-27.47-33.57-18.6-51.11c8.27-16.35,24.04-28.61,32.83-45.11
			C632.92,316.64,586.87,291.78,571.02,321.52L571.02,321.52z"/>
	</g>
</g>
<g>
	<g>
		<path class="st0" d="M616.96,346.63c-8.46,15.81-23.33,27.79-31.81,43.16c0,0,0,0.04-0.04,0.09c-0.33,0.53-0.62,1.11-0.9,1.69
			c-0.04,0.05-0.04,0.09-0.08,0.13c-0.12,0.35-0.28,0.66-0.45,1.02c0,0,0,0-0.04,0.05c-0.57,1.2-0.97,2.43-1.27,3.66l0,0.04
			c-1.52,4.86-5.07,6.82-8.31,9.41c-5.74,4.61-22.77,10.11-37.82-1.52c-6.84-5.29-7.37-8.74-6.23-16.84
			c0.64-4.54,1.47-5.85,3.08-9.83c2.86-7.08,6.88-13.45,11.35-19.53c8.8-12.07,19.35-23.07,26.45-36.44
			C586.74,291.96,632.81,316.82,616.96,346.63z"/>
	</g>
</g>
<g>
	<path class="st0" d="M693.21,327.95c10.18,25.17,32.19,44.01,34.01,72.62c1.92,30.19-19.03,55.26-37.24,76.88
		c-21.64,25.7-62.88-6.53-41.11-32.39c10.88-12.92,30.84-30.5,23.86-48.87c-6.51-17.12-20.9-30.98-27.92-48.31
		C632.16,316.6,680.57,296.71,693.21,327.95L693.21,327.95z"/>
</g>
<g>
	<path class="st0" d="M644.88,348.1c6.75,16.62,20.29,30.08,27.1,46.26c0,0-0.01,0.04,0.03,0.09c0.27,0.57,0.5,1.17,0.72,1.77
		c0.04,0.05,0.03,0.09,0.07,0.14c0.08,0.36,0.21,0.69,0.34,1.06c0,0,0,0,0.04,0.05c0.44,1.25,0.71,2.52,0.88,3.78l-0.01,0.04
		c1,4.99,4.33,7.31,7.27,10.23c5.22,5.19,20.98,11.39,37.77,2.46c7.1-3.78,8.24-7.92,7.96-16.09c-0.16-4.58-0.84-5.97-2.03-10.1
		c-2.1-7.34-5.43-14.1-9.24-20.62c-7.49-12.93-16.82-24.97-22.48-39.02C680.67,296.91,632.24,316.79,644.88,348.1z"/>
</g>
<text transform="matrix(1 0 0 1 506.1048 772.3139)" class="st0 st1 st2">Code With Fun</text>
</svg>
