<?xml version="1.0" encoding="utf-8"?>
<!-- Generator: Adobe Illustrator 23.0.5, SVG Export Plug-In . SVG Version: 6.00 Build 0)  -->
<svg version="1.1" id="Layer_1" xmlns="http://www.w3.org/2000/svg" xmlns:xlink="http://www.w3.org/1999/xlink" x="0px" y="0px"
	 viewBox="0 0 1080 1080" style="enable-background:new 0 0 1080 1080;" xml:space="preserve">
<style type="text/css">
	.st0{fill:#E76A69;}
	.st1{fill:#F4CA13;}
	.st2{fill:#EA612D;}
	.st3{fill:#F6C482;}
	.st4{fill:#4785C5;}
	.st5{fill:#7DB3D8;}
	.st6{fill:#BB3626;}
	.st7{font-family:'Poppins-Bold';}
	.st8{font-size:47.4472px;}
</style>
<path class="st0" d="M375.91,382.43c-0.09-17.66-3.38-33.03-9.86-46.15c-6.48-13.16-15.24-23.25-26.3-30.26
	c-11.1-7.06-23.45-10.53-37.01-10.43c-11.55,0.05-21.59,2.47-30.07,7.14c-4.68,2.62-8.78,5.72-12.29,9.31c0,0-0.04,0-0.08,0.04
	c-0.56,0.58-1.2,0.92-1.86,1.09c-0.41,0.1-0.87,0.16-1.28,0.14c-2.17-0.11-4.21-1.82-4.19-4.36c-0.05-6.06-4.96-10.91-11.02-10.86
	l-26.43,0.12c-12.25,0.09-22.16,10.1-22.07,22.35l0.61,103.58l0.32,55.44l0.1,27.02c0.05,12.25,10.02,22.11,22.27,22.02l14.14-0.08
	c12.87-0.06,23.25-10.57,23.15-23.44l-0.13-30.34l-0.11-19.63c0-3.19,3.85-4.67,6.02-2.35c3.91,4.26,8.6,7.83,13.93,10.77
	c8.44,4.62,18.44,6.91,29.99,6.82c13.6-0.06,25.88-3.68,36.86-10.84c11.03-7.16,19.68-17.4,25.99-30.71S376,400.05,375.91,382.43z
	 M306.56,408.81c-5.85,6.36-13.12,9.6-21.71,9.7c-6.2,0.08-12.4-1.73-17.53-5.23c-9.21-6.28-13.87-16.34-13.93-30.17
	c-0.11-13.44,4.34-23.37,13.33-29.86c5.02-3.59,11.15-5.52,17.29-5.56c8.81-0.11,16.23,2.94,22.25,9.12
	c6.02,6.17,9.05,14.81,9.12,25.96C315.47,393.71,312.51,402.4,306.56,408.81z"/>
<path class="st1" d="M523.1,338.07l-2.31-26.1c-1.55-17.53-21.55-26.75-35.89-16.55l-4.69,3.33c-2.64,1.88-4.96,4.15-7.37,6.34
	c-2.59,2.35-5.84,3.49-8.71,3.34c-3.39-0.18-6.2-2.23-6.56-6.44c-0.48-5.2-5.05-9.02-10.2-8.54l-36.19,3.18
	c-11.86,1.06-20.58,11.51-19.53,23.33l8.36,94.72l1.7,18.92l2.07,23.62l0.14,1.47c0.19,2.22,0.61,4.36,1.21,6.38
	c4.25,14.06,17.94,23.71,33.12,22.39l26.07-2.3c5.15-0.48,11.21-12.23,10.73-17.43l-7.8-46.6c-0.04-0.05-0.04-0.05-0.04-0.05
	l-0.67-4.1l-2.9-17.17c-1.29-14.12,4.03-23.57,10.59-29.9c3.3-3.14,7.55-5.7,12.82-7.59c5.23-1.86,11.37-3.15,18.55-3.79
	C516.13,357.59,524.03,348.58,523.1,338.07z"/>
<path class="st2" d="M420.17,655.93c-3.11-3.88-4.27-8.8-3.4-13.44c0.45-2.63,1.55-5.18,3.26-7.39l40.89-52.13
	c3.79-4.84,0.05-11.93-6.11-11.5l-27.37,1.92c-8.96,0.63-17.27,4.84-23.11,11.69l-25.81,30.2c-4,4.7-11.77,1.86-11.75-4.38l0-64.67
	c0.03-13.08-10.56-23.63-23.64-23.65l-4.99,0c-13.08,0.02-23.68,10.6-23.65,23.64l-0.03,150.15c0.02,13.04,10.6,23.63,23.64,23.65
	l5.04,0c13.04-0.02,23.63-10.6,23.61-23.64l0.04-26.83c-0.03-3.71,4.62-5.41,6.99-2.55c0,0,0,0,0.04,0.05l29.99,35.7
	c6.08,7.17,14.67,11.78,24.04,12.71l13.67,1.43c11.25,1.17,18.3-11.81,11.21-20.63L420.17,655.93z"/>
<path class="st3" d="M529.38,673.96l-1.31-82.64c0.01-0.26-0.02-0.53-0.05-0.75c-0.54-9.89-8.7-17.7-18.69-17.69h-9.24
	c-10.17,0-18.46,8.09-18.73,18.24l-2.37,89.52l-0.58,22.69c-0.29,10.5,8.18,19.22,18.7,19.24l14.01-0.01
	c10.48-0.02,18.93-8.6,18.73-19.04L529.38,673.96z"/>
<path class="st3" d="M526.32,551.41c-0.46,0.42-0.93,0.79-1.38,1.12c-5.4,4.31-12.27,6.47-20.63,6.47c-8.49,0-15.44-2.18-20.88-6.49
	c-0.51-0.34-0.93-0.71-1.4-1.13c-5.61-5.07-8.37-11.4-8.41-19.05c0.02-5.48,1.38-10.31,4.21-14.5c1.11-1.8,2.52-3.45,4.2-4.99
	c5.62-5.14,13.05-7.71,22.29-7.71c9.06-0.01,16.44,2.59,22,7.74c1.43,1.31,2.64,2.7,3.71,4.17c3.13,4.32,4.72,9.44,4.72,15.28
	C534.75,539.96,531.94,546.31,526.32,551.41z"/>
<path class="st1" d="M718.17,649.33l0-0.04l0.01-105.99c-0.01-11.49-9.34-20.78-20.83-20.81l-10.92,0
	c-11.49,0.01-20.82,9.34-20.81,20.83l-0.02,47.47c-4.28-6.94-10.18-12.43-17.75-16.4c-7.52-4.02-16.13-6.02-25.72-5.99
	c-11.93-0.01-22.79,3.09-32.58,9.34c-9.79,6.2-17.46,15.13-23.06,26.68c-5.6,11.55-8.39,25.06-8.41,40.53
	c-0.02,15.47,2.8,29.06,8.42,40.71c5.58,11.65,13.24,20.59,22.94,26.8c9.66,6.21,20.46,9.34,32.39,9.35
	c10.12,0,18.94-2.05,26.4-6.12c7.47-4.12,13.28-9.64,17.36-16.55c0.01,11.49,9.29,20.78,20.83,20.81l10.92,0
	c11.49-0.01,20.82-9.34,20.81-20.83L718.17,649.33z M653.57,671.61c-4.81,3.28-10.68,4.79-16.5,4.52
	c-7.14-0.38-13.09-3.16-17.9-8.37c-5.14-5.62-7.7-13.22-7.73-22.82c0.03-9.77,2.6-17.41,7.74-22.84c4.82-5.05,10.79-7.74,17.97-8.07
	c6.34-0.29,12.78,1.56,17.79,5.45c7.26,5.64,10.92,14.14,10.95,25.46C665.87,657.19,661.78,666.08,653.57,671.61z"/>
<path class="st2" d="M864.36,690.27c0.02-9.68-7.83-17.52-17.51-17.54l-29.09,0.02c-6.45-0.03-9.8-7.76-5.35-12.48l45.06-47.36
	c3.09-3.2,4.77-7.48,4.78-11.9l-0.02-17.2c0.01-9.5-7.71-17.25-17.26-17.26l-84.16-0.01c-9.55-0.02-17.29,7.75-17.31,17.3l0.02,8.89
	c-0.02,9.55,7.75,17.29,17.26,17.31l26.26,0.01c6.19-0.03,9.61,7.18,5.73,12.02l-38.81,47.91c-3.12,3.86-4.44,8.83-3.68,13.73
	l2.05,13.19c1.29,8.2,8.17,14.4,16.5,14.79l44.58,2.12l32.58,1.54c10.01,0.48,18.38-7.47,18.38-17.51L864.36,690.27z"/>
<g>
	<g>
		<path class="st4" d="M569.89,316.88c-12.93,24.26-37.08,40.88-41.95,69.49c-5.14,30.18,13.29,57.65,29.32,81.35
			c19.05,28.17,63.99,0.11,44.82-28.24c-9.58-14.17-27.8-33.98-18.82-51.73c8.37-16.55,24.33-28.96,33.23-45.66
			C632.55,311.94,585.94,286.77,569.89,316.88L569.89,316.88z"/>
	</g>
</g>
<g>
	<g>
		<path class="st5" d="M616.4,342.29c-8.56,16.01-23.62,28.12-32.2,43.69c0,0,0,0.04-0.04,0.09c-0.34,0.54-0.63,1.12-0.91,1.71
			c-0.04,0.05-0.04,0.09-0.08,0.14c-0.12,0.36-0.29,0.67-0.45,1.03c0,0,0,0-0.04,0.05c-0.58,1.21-0.98,2.46-1.29,3.71l0,0.04
			c-1.53,4.92-5.13,6.9-8.41,9.53c-5.81,4.67-23.05,10.23-38.28-1.54c-6.92-5.35-7.46-8.85-6.31-17.04c0.64-4.6,1.48-5.92,3.12-9.95
			c2.9-7.16,6.97-13.61,11.49-19.77c8.91-12.22,19.58-23.35,26.77-36.89C585.81,286.96,632.45,312.12,616.4,342.29z"/>
	</g>
</g>
<g>
	<path class="st6" d="M693.58,323.39c10.31,25.48,32.58,44.54,34.42,73.5c1.94,30.56-19.27,55.93-37.69,77.82
		c-21.9,26.02-63.65-6.61-41.61-32.79c11.01-13.08,31.22-30.88,24.15-49.47c-6.59-17.33-21.16-31.36-28.26-48.9
		C631.78,311.9,680.78,291.76,693.58,323.39L693.58,323.39z"/>
</g>
<g>
	<path class="st2" d="M644.66,343.78c6.84,16.82,20.54,30.45,27.43,46.83c0,0-0.01,0.04,0.03,0.09c0.28,0.57,0.5,1.18,0.73,1.8
		c0.04,0.05,0.03,0.09,0.07,0.14c0.08,0.37,0.21,0.7,0.34,1.07c0,0,0,0,0.04,0.05c0.45,1.27,0.71,2.55,0.89,3.82l-0.01,0.04
		c1.01,5.05,4.38,7.4,7.36,10.36c5.29,5.25,21.24,11.53,38.23,2.49c7.19-3.82,8.34-8.02,8.06-16.29c-0.16-4.64-0.85-6.05-2.05-10.23
		c-2.13-7.43-5.5-14.27-9.35-20.87c-7.58-13.09-17.02-25.28-22.75-39.49C680.89,291.96,631.87,312.09,644.66,343.78z"/>
</g>
<text transform="matrix(1 0 0 1 504.1874 773.1824)" class="st2 st7 st8">Code With Fun</text>
</svg>
