<svg width="27" height="21" viewBox="0 0 27 21" fill="none" xmlns="http://www.w3.org/2000/svg">
<g clip-path="url(#clip0_511_417)">
<path d="M25.8359 18.9851C25.4539 19.1818 25.1654 18.8086 24.8654 18.6128C22.7922 17.2736 20.5603 16.7407 18.1368 17.3794C16.2586 17.877 14.8815 19.0256 14.0998 20.8368C14.0778 20.8889 14.0495 20.9383 14.024 20.9886L13.9357 20.97V20.4469C13.9357 15.67 13.9357 10.8931 13.9357 6.11625C13.9357 5.9107 13.9437 5.70514 13.941 5.4987C13.9163 3.08762 15.3376 1.63197 17.1787 0.927086C20.023 -0.160681 22.6943 0.341297 25.1654 2.05367C25.4203 2.21872 25.6329 2.44127 25.7861 2.70344C25.9393 2.9656 26.0289 3.26006 26.0476 3.56313C26.067 3.84103 26.097 4.11981 26.0979 4.39859C26.0979 8.92727 26.0979 13.4539 26.0979 17.9785C26.0944 18.3331 26.217 18.791 25.8359 18.9851Z" fill="white"/>
<path d="M13.0615 20.4398C13.0615 20.5968 13.095 20.7609 12.9671 21C12.4377 19.6908 11.6182 18.7063 10.4554 18.0472C8.14224 16.7442 5.78321 16.8801 3.41888 17.9087C2.84341 18.1708 2.29425 18.4872 1.77885 18.8536C1.25747 19.2047 0.959279 19.0556 0.909875 18.4204C0.896642 18.244 0.900171 18.0675 0.900171 17.8911C0.899288 13.3803 0.918697 8.86872 0.886937 4.35709C0.878115 3.122 1.32804 2.25831 2.40699 1.65047C4.93099 0.22305 7.52381 -0.0883704 10.2181 1.09467C11.0265 1.46155 11.7257 2.03216 12.2472 2.75058C12.9079 3.6328 13.0588 4.6544 13.0597 5.71481C13.0609 9.66829 13.0615 13.6215 13.0615 17.5744C13.0615 18.5263 13.0615 19.4844 13.0615 20.4398Z" fill="white"/>
</g>
<defs>
<clipPath id="clip0_511_417">
<rect width="25.2259" height="20.6473" fill="white" transform="translate(0.886963 0.352783)"/>
</clipPath>
</defs>
</svg>
