<svg version="1.1" id="Uploaded to svgrepo.com" xmlns="http://www.w3.org/2000/svg" xmlns:xlink="http://www.w3.org/1999/xlink" x="0px" y="0px"
	 width="32px" height="32px" viewBox="0 0 32 32" style="enable-background:new 0 0 32 32;" xml:space="preserve">
<style type="text/css">
	.duotone_twee{fill:#555D5E;}
	.duotone_een{fill:#0B1719;}
	.st0{fill:none;}
</style>
<g>
	<path class="duotone_twee" d="M11,24H4l0.905-3.621C4.957,20.17,5.176,20,5.39,20H9.61c0.215,0,0.433,0.17,0.485,0.379L11,24z
		 M20,24h7l-0.905-3.621C26.043,20.17,25.824,20,25.61,20H21.39c-0.215,0-0.433,0.17-0.485,0.379L20,24z"/>
	<path class="duotone_een" d="M13,6.5C13,6.775,12.775,7,12.5,7h-4C8.225,7,8,6.775,8,6.5v-1C8,5.225,8.225,5,8.5,5h4
		C12.775,5,13,5.225,13,5.5V6.5z M11,25H4v1.5C4,26.775,4.225,27,4.5,27h6c0.275,0,0.5-0.225,0.5-0.5V25z M18,6.5
		C18,6.775,18.225,7,18.5,7h4C22.775,7,23,6.775,23,6.5v-1C23,5.225,22.775,5,22.5,5h-4C18.225,5,18,5.225,18,5.5V6.5z M20,26.5
		c0,0.275,0.225,0.5,0.5,0.5h6c0.275,0,0.5-0.225,0.5-0.5V25h-7V26.5z M14.5,10C14.225,10,14,9.775,14,9.5v-1
		C14,8.225,13.775,8,13.5,8h-6C7.225,8,7,8.225,7,8.5v1C7,9.775,6.775,10,6.5,10l0,0c-0.275,0-0.549,0.22-0.608,0.488l-1.783,8.024
		C4.049,18.78,4.225,19,4.5,19h6c0.275,0,0.5-0.225,0.5-0.5v-1c0-0.275,0.225-0.5,0.5-0.5h3c0.275,0,0.5-0.225,0.5-0.5v-6
		C15,10.225,14.775,10,14.5,10L14.5,10z M16.548,10c-0.275,0-0.5,0.225-0.5,0.5v6c0,0.275,0.225,0.5,0.5,0.5h3
		c0.275,0,0.5,0.225,0.5,0.5v1c0,0.275,0.225,0.5,0.5,0.5h6c0.275,0,0.451-0.22,0.392-0.488l-1.783-8.024
		C25.097,10.22,24.823,10,24.548,10l0,0c-0.275,0-0.5-0.225-0.5-0.5v-1c0-0.275-0.225-0.5-0.5-0.5h-6c-0.275,0-0.5,0.225-0.5,0.5v1
		C17.048,9.775,16.823,10,16.548,10L16.548,10z"/>
</g>
</svg>