<svg id="SvgjsSvg1001" width="288" height="288" xmlns="http://www.w3.org/2000/svg" version="1.1" xmlns:xlink="http://www.w3.org/1999/xlink" xmlns:svgjs="http://svgjs.com/svgjs"><defs id="SvgjsDefs1002"></defs><g id="SvgjsG1008"><svg xmlns="http://www.w3.org/2000/svg" width="288" height="288" fill="none" viewBox="0 0 27 21"><g clip-path="url(#clip0_92_818)" fill="#1e3f41" class="color000 svgShape"><path fill="#1e3f41" d="M25.8359 18.9852C25.4539 19.1819 25.1655 18.8087 24.8655 18.6129 22.7923 17.2737 20.5603 16.7408 18.1369 17.3796 16.2587 17.8771 14.8815 19.0258 14.0999 20.8369 14.0778 20.889 14.0496 20.9384 14.024 20.9887L13.9358 20.9702V20.447C13.9358 15.6701 13.9358 10.8933 13.9358 6.11637 13.9358 5.91082 13.9437 5.70526 13.9411 5.49883 13.9164 3.08774 15.3376 1.63209 17.1788.927208 20.023-.160559 22.6944.34142 25.1655 2.05379 25.4203 2.21884 25.6329 2.4414 25.7862 2.70356 25.9394 2.96572 26.0289 3.26018 26.0477 3.56325 26.0671 3.84115 26.0971 4.11993 26.098 4.39871 26.098 8.92739 26.098 13.454 26.098 17.9786 26.0944 18.3332 26.2171 18.7911 25.8359 18.9852zM13.0614 20.4399C13.0614 20.5969 13.0949 20.761 12.967 21.0001 12.4376 19.6909 11.6181 18.7063 10.4553 18.0473 8.14215 16.7443 5.78312 16.8802 3.41879 17.9088 2.84332 18.1709 2.29415 18.4873 1.77876 18.8537 1.25737 19.2048.959187 19.0557.909783 18.4205.89655 18.2441.900079 18.0676.900079 17.8912.899197 13.3804.918605 8.86881.886846 4.35718.878024 3.12209 1.32795 2.2584 2.4069 1.65056 4.9309.223142 7.52372-.0882789 10.218 1.09477 11.0264 1.46164 11.7256 2.03225 12.2471 2.75068 12.9079 3.63289 13.0587 4.65449 13.0596 5.71491 13.0608 9.66839 13.0614 13.6216 13.0614 17.5745 13.0614 18.5264 13.0614 19.4845 13.0614 20.4399z" class="colorfff svgShape"></path></g><defs><clipPath id="clip0_92_818"><rect width="25.226" height="20.647" fill="#1e3f41" transform="translate(.887 .353)" class="colorfff svgShape"></rect></clipPath></defs></svg></g></svg>